<?xml version="1.0" encoding="UTF-8" standalone="no"?>
<svg
   xmlns:dc="http://purl.org/dc/elements/1.1/"
   xmlns:cc="http://creativecommons.org/ns#"
   xmlns:rdf="http://www.w3.org/1999/02/22-rdf-syntax-ns#"
   xmlns:svg="http://www.w3.org/2000/svg"
   xmlns="http://www.w3.org/2000/svg"
   width="118.9211mm"
   height="58.422462mm"
   viewBox="0 0 421.37396 207.00872"
   id="svg2"
   version="1.1">
  <defs
     id="defs4" />
  <metadata
     id="metadata7">
    <rdf:RDF>
      <cc:Work
         rdf:about="">
        <dc:format>image/svg+xml</dc:format>
        <dc:type
           rdf:resource="http://purl.org/dc/dcmitype/StillImage" />
        <dc:title></dc:title>
      </cc:Work>
    </rdf:RDF>
  </metadata>
  <path
     d="m 119.89596,42.112759 v 17.314453 c -6.73828,-3.222657 -13.0957,-5.625 -19.07226,-7.207031 -5.976569,-1.582031 -11.748052,-2.373047 -17.314457,-2.373047 -9.667969,0 -17.138672,1.875 -22.412109,5.625 -5.214844,3.75 -7.822266,9.082031 -7.822266,15.996093 0,5.800781 1.728516,10.195313 5.185547,13.183594 3.515625,2.92969 10.136718,5.30273 19.863281,7.11914 l 10.722656,2.19727 c 13.242188,2.51953 22.998048,6.972649 29.267578,13.359369 6.32813,6.32813 9.49219,14.82422 9.49219,25.48828 0,12.71485 -4.27734,22.35352 -12.83203,28.91602 -8.49609,6.5625 -20.976559,9.84375 -37.441409,9.84375 -6.210938,0 -12.832032,-0.70313 -19.863282,-2.10938 -6.972656,-1.40625 -14.208984,-3.48632 -21.708984,-6.24023 v -18.28125 c 7.207031,4.04297 14.267578,7.08984 21.181641,9.14062 6.914062,2.05079 13.710937,3.07618 20.390625,3.07618 10.13672,0 17.95899,-1.99219 23.466799,-5.97657 5.50781,-3.98437 8.26172,-9.66797 8.26172,-17.05078 0,-6.44531 -1.99219,-11.48438 -5.97657,-15.11719 -3.925779,-3.63281 -10.400389,-6.35741 -19.423824,-8.17382 l -10.810547,-2.10938 c -13.242188,-2.63672 -22.822266,-6.76758 -28.740235,-12.392579 -5.917969,-5.625 -8.876953,-13.447265 -8.876953,-23.466794 0,-11.601562 4.072266,-20.742187 12.216797,-27.421875 8.203125,-6.679687 19.482422,-10.019531 33.837891,-10.019531 6.152343,0 12.421872,0.556641 18.808591,1.669922 6.38672,1.113281 12.91992,2.783203 19.59961,5.009766 z"
     style="font-style:normal;font-variant:normal;font-weight:normal;font-stretch:normal;font-size:180px;line-height:125%;font-family:Sans;-inkscape-font-specification:'Sans, Normal';text-align:center;letter-spacing:0px;word-spacing:0px;writing-mode:lr-tb;text-anchor:middle;fill:#000000;fill-opacity:1;stroke:#000000;stroke-width:1px;stroke-linecap:butt;stroke-linejoin:miter;stroke-opacity:1"
     id="S" />
  <path
     d="M 189.68112,169.02682 139.58346,37.806118 h 18.54492 L 199.70065,148.28463 241.3608,37.806118 h 18.45704 L 209.80807,169.02682 Z"
     style="font-style:normal;font-variant:normal;font-weight:normal;font-stretch:normal;font-size:180px;line-height:125%;font-family:Sans;-inkscape-font-specification:'Sans, Normal';text-align:center;letter-spacing:0px;word-spacing:0px;writing-mode:lr-tb;text-anchor:middle;fill:#000000;fill-opacity:1;stroke:#000000;stroke-width:1px;stroke-linecap:butt;stroke-linejoin:miter;stroke-opacity:1"
     id="V" />
  <path
     d="m 368.36276,150.30612 v -35.24414 h -29.00391 v -14.58985 h 46.58203 v 56.33789 c -6.85547,4.86329 -14.41406,8.55469 -22.67578,11.07422 -8.26172,2.46094 -17.08008,3.69141 -26.45508,3.69141 -20.50781,0 -36.5625,-5.97656 -48.16406,-17.92969 -11.54297,-12.01172 -17.31445,-28.71094 -17.31445,-50.09766 0,-21.445308 5.77148,-38.144526 17.31445,-50.097651 11.60156,-12.011719 27.65625,-18.017578 48.16406,-18.017578 8.55469,0 16.66992,1.054688 24.34571,3.164063 7.73437,2.109375 14.85351,5.214843 21.35742,9.316406 v 18.896484 c -6.5625,-5.566406 -13.53516,-9.755859 -20.91797,-12.568359 -7.38281,-2.8125 -15.14649,-4.21875 -23.29102,-4.21875 -16.05469,0 -28.125,4.482422 -36.21093,13.447266 -8.02735,8.964843 -12.04102,22.32422 -12.04102,40.078119 0,17.69531 4.01367,31.02539 12.04102,39.99024 8.08593,8.96484 20.15624,13.44726 36.21093,13.44726 6.26953,0 11.86524,-0.52734 16.78711,-1.58203 4.92188,-1.11328 9.34571,-2.8125 13.27149,-5.09765 z"
     style="font-style:normal;font-variant:normal;font-weight:normal;font-stretch:normal;font-size:180px;line-height:125%;font-family:Sans;-inkscape-font-specification:'Sans, Normal';text-align:center;letter-spacing:0px;word-spacing:0px;writing-mode:lr-tb;text-anchor:middle;fill:#000000;fill-opacity:1;stroke:#000000;stroke-width:1px;stroke-linecap:butt;stroke-linejoin:miter;stroke-opacity:1"
     id="G" />
</svg>
