<?xml version="1.0" encoding="UTF-8" standalone="no"?>
<svg
   xmlns:dc="http://purl.org/dc/elements/1.1/"
   xmlns:cc="http://creativecommons.org/ns#"
   xmlns:rdf="http://www.w3.org/1999/02/22-rdf-syntax-ns#"
   xmlns:svg="http://www.w3.org/2000/svg"
   xmlns="http://www.w3.org/2000/svg"
   version="1.1"
   id="svg2"
   viewBox="0 0 421.37396 207.00872"
   height="58.422462mm"
   width="118.9211mm">
  <defs
     id="defs4" />
  <metadata
     id="metadata7">
    <rdf:RDF>
      <cc:Work
         rdf:about="">
        <dc:format>image/svg+xml</dc:format>
        <dc:type
           rdf:resource="http://purl.org/dc/dcmitype/StillImage" />
        <dc:title></dc:title>
      </cc:Work>
    </rdf:RDF>
  </metadata>
  <g
     transform="translate(-9.0035591,-14.345829)"
     id="layer1">
    <g
       id="text4136"
       style="font-style:normal;font-variant:normal;font-weight:normal;font-stretch:normal;font-size:14px;line-height:125%;font-family:Sans;-inkscape-font-specification:Sans;text-align:center;letter-spacing:0px;word-spacing:0px;writing-mode:lr-tb;text-anchor:middle;fill:#000000;fill-opacity:1;stroke:#000000;stroke-width:1px;stroke-linecap:butt;stroke-linejoin:miter;stroke-opacity:1">
      <path
         id="path4141"
         style="font-style:normal;font-variant:normal;font-weight:normal;font-stretch:normal;font-size:180px;line-height:125%;font-family:Sans;-inkscape-font-specification:'Sans, Normal';text-align:center;writing-mode:lr-tb;text-anchor:middle;fill:#000000;fill-opacity:1;stroke:#000000;stroke-opacity:1"
         d="m 128.89952,56.458588 0,17.314453 c -6.73828,-3.222657 -13.0957,-5.625 -19.07226,-7.207031 -5.97657,-1.582031 -11.748053,-2.373047 -17.314458,-2.373047 -9.667969,0 -17.138672,1.875 -22.412109,5.625 -5.214844,3.75 -7.822266,9.082031 -7.822266,15.996093 0,5.800781 1.728516,10.195313 5.185547,13.183594 3.515625,2.92969 10.136718,5.30273 19.863281,7.11914 l 10.722656,2.19727 c 13.242189,2.51953 22.998049,6.97265 29.267579,13.35937 6.32813,6.32813 9.49219,14.82422 9.49219,25.48828 0,12.71485 -4.27734,22.35352 -12.83203,28.91602 -8.49609,6.5625 -20.97656,9.84375 -37.44141,9.84375 -6.210938,0 -12.832032,-0.70313 -19.863282,-2.10938 -6.972656,-1.40625 -14.208984,-3.48632 -21.708984,-6.24023 l 0,-18.28125 c 7.207031,4.04297 14.267578,7.08984 21.181641,9.14062 6.914062,2.05079 13.710937,3.07618 20.390625,3.07618 10.13672,0 17.95899,-1.99219 23.4668,-5.97657 5.50781,-3.98437 8.26172,-9.66797 8.26172,-17.05078 0,-6.44531 -1.99219,-11.48438 -5.97657,-15.11719 -3.92578,-3.63281 -10.40039,-6.35741 -19.423825,-8.17382 L 82.053818,123.07968 C 68.81163,120.44296 59.231552,116.3121 53.313583,110.6871 47.395614,105.0621 44.43663,97.239835 44.43663,87.220306 c 0,-11.601562 4.072266,-20.742187 12.216797,-27.421875 C 64.856552,53.118744 76.135849,49.7789 90.491318,49.7789 c 6.152343,0 12.421872,0.556641 18.808592,1.669922 6.38672,1.113281 12.91992,2.783203 19.59961,5.009766 z" />
      <path
         id="path4143"
         style="font-style:normal;font-variant:normal;font-weight:normal;font-stretch:normal;font-size:180px;line-height:125%;font-family:Sans;-inkscape-font-specification:'Sans, Normal';text-align:center;writing-mode:lr-tb;text-anchor:middle;fill:#000000;fill-opacity:1;stroke:#000000;stroke-opacity:1"
         d="m 198.68468,183.37265 -50.09766,-131.220703 18.54492,0 41.57227,110.478513 41.66015,-110.478513 18.45704,0 -50.00977,131.220703 z" />
      <path
         id="path4145"
         style="font-style:normal;font-variant:normal;font-weight:normal;font-stretch:normal;font-size:180px;line-height:125%;font-family:Sans;-inkscape-font-specification:'Sans, Normal';text-align:center;writing-mode:lr-tb;text-anchor:middle;fill:#000000;fill-opacity:1;stroke:#000000;stroke-opacity:1"
         d="m 377.36632,164.65195 0,-35.24414 -29.00391,0 0,-14.58985 46.58203,0 0,56.33789 c -6.85547,4.86329 -14.41406,8.55469 -22.67578,11.07422 -8.26172,2.46094 -17.08008,3.69141 -26.45508,3.69141 -20.50781,0 -36.5625,-5.97656 -48.16406,-17.92969 -11.54297,-12.01172 -17.31445,-28.71094 -17.31445,-50.09766 0,-21.445309 5.77148,-38.144527 17.31445,-50.097652 11.60156,-12.011719 27.65625,-18.017578 48.16406,-18.017578 8.55469,0 16.66992,1.054688 24.34571,3.164063 7.73437,2.109375 14.85351,5.214843 21.35742,9.316406 l 0,18.896484 c -6.5625,-5.566406 -13.53516,-9.755859 -20.91797,-12.568359 -7.38281,-2.8125 -15.14649,-4.21875 -23.29102,-4.21875 -16.05469,0 -28.125,4.482422 -36.21093,13.447266 -8.02735,8.964843 -12.04102,22.32422 -12.04102,40.07812 0,17.69531 4.01367,31.02539 12.04102,39.99024 8.08593,8.96484 20.15624,13.44726 36.21093,13.44726 6.26953,0 11.86524,-0.52734 16.78711,-1.58203 4.92188,-1.11328 9.34571,-2.8125 13.27149,-5.09765 z" />
    </g>
  </g>
</svg>
